#define bbqlidopen_width 13
#define bbqlidopen_height 10
const PROGMEM uint8_t bbqlidopen_bits[] = {
   0x40, 0x00, 0x70, 0x00, 0x08, 0x00, 0x04, 0x00, 0x04, 0x04, 0x04, 0x04,
   0x08, 0x02, 0xf0, 0x01, 0x08, 0x02, 0x00, 0x00 };
