#define download_cloud_solid_png_width 18
#define download_cloud_solid_png_height 9
static unsigned char download_cloud_solid_png_bits[] PROGMEM = {
   0x00, 0x00, 0x00, 0x00, 0x00, 0x00, 0x91, 0xb9, 0x03, 0x5b, 0x12, 0x01,
   0x55, 0x12, 0x01, 0x51, 0x13, 0x01, 0x91, 0x13, 0x01, 0x00, 0x00, 0x00,
   0x00, 0x00, 0x00 };
