#define thermometer_width 10
#define thermometer_height 23
static const uint8_t thermometer_bits[] PROGMEM = {
   0x78, 0x00, 0x48, 0x00, 0xcc, 0x00, 0xb4, 0x00, 0xb4, 0x01, 0xb4, 0x00,
   0xb4, 0x01, 0xb4, 0x00, 0xb4, 0x01, 0xb4, 0x00, 0xb4, 0x01, 0xb4, 0x00,
   0xb4, 0x00, 0xb4, 0x00, 0xb6, 0x01, 0x7b, 0x03, 0xcd, 0x02, 0x85, 0x02,
   0x85, 0x02, 0xcd, 0x02, 0x7b, 0x03, 0x86, 0x01, 0xfc, 0x00 };
