#define bbqlidclosed_width 13
#define bbqlidclosed_height 10
static unsigned char bbqlidclosed_bits[] = {
   0x40, 0x00, 0xf0, 0x01, 0xf8, 0x03, 0xfc, 0x07, 0xfc, 0x07, 0xfc, 0x07,
   0xf8, 0x03, 0xf0, 0x01, 0x08, 0x02, 0x00, 0x00 };
