#define fan_width 24
#define fan_height 24
static unsigned char fan_bits[] = {
   0xf0, 0x00, 0x00, 0xf8, 0x01, 0x00, 0xfc, 0x01, 0x3e, 0xfc, 0x81, 0x7f,
   0xfc, 0xc1, 0xff, 0xfc, 0xc1, 0xff, 0xfc, 0xe1, 0xff, 0xf8, 0xe3, 0xff,
   0xf8, 0xf3, 0x7f, 0xf0, 0xf7, 0x01, 0xc0, 0x7f, 0x00, 0x00, 0x3f, 0x00,
   0x00, 0xfc, 0x00, 0x00, 0xfe, 0x03, 0x80, 0xef, 0x0f, 0xfe, 0xcf, 0x1f,
   0xff, 0xc7, 0x1f, 0xff, 0x87, 0x3f, 0xff, 0x83, 0x3f, 0xff, 0x83, 0x3f,
   0xfe, 0x81, 0x3f, 0x7c, 0x80, 0x3f, 0x00, 0x80, 0x1f, 0x00, 0x00, 0x0f };
