#define wifi10x10_png_width 13
#define wifi10x10_png_height 10
static unsigned char wifi10x10_png_bits[] = {
   0xf0, 0x01, 0x0c, 0x06, 0x02, 0x08, 0xf0, 0x01, 0x08, 0x02, 0x00, 0x00,
   0x40, 0x00, 0x00, 0x00, 0x00, 0x00, 0x00, 0x00 };
